<!-- Generator: Adobe Illustrator 22.0.0, SVG Export Plug-In  -->
<svg version="1.1"
	 xmlns="http://www.w3.org/2000/svg" xmlns:xlink="http://www.w3.org/1999/xlink" xmlns:a="http://ns.adobe.com/AdobeSVGViewerExtensions/3.0/"
	 x="0px" y="0px" width="71.4px" height="117.7px" viewBox="0 0 71.4 117.7" style="enable-background:new 0 0 71.4 117.7;"
	 xml:space="preserve">
<style type="text/css">
	.st0{fill:#FF443B;}
	.st1{fill:#003549;}
	.st2{fill:#FFFFFF;}
</style>
<defs>
</defs>
<g>
	<path class="st0" d="M29.8,24c0,0-5.9,10.1-12.4,15.2C10.9,44.3,5.9,52.3,3,60.3c-3,8-3,14.3-3,14.3s7.2-11.3,11.8-8
		c4.7,3.3,0.3,9.1,4.4,11.8c4.1,2.8,7.5-2.4,9.8,0c2.3,2.4,5.8,1.9,8.2-2.9c2.7-5.5,7.3-2.8,5.4,1c-2.9,5.9,6.3,10.1,11,7.6
		c2.7-1.4,7.1-1.6,8.6,0.4c1.5,2,2.1,5.6,2.1,5.6s3.2-3.6,2.9-11.1C64,71.4,53,54.8,54.3,40.3c0.4-4.6,0.6-14.5,1.4-14.5
		C56.6,25.8,29.8,24,29.8,24z"/>
	<path class="st1" d="M66.1,49.5C67,46,71.2,41.6,71.4,39c0.2-2.5-1.3-5.4-3.3-9.3c-1.4-2.8-4.1-5.1-5.1-5.7c-4.1-2.7-3.2-7-7.1-8.9
		c-3.2-1.6-9.8-4.8-17.1-3.2l-7.3,1.6c-3.6,0.5-6.2,3.8-8,5.5c-1.8,1.8-6.2,1.5-9.7,3.2c-3.5,1.8-4.5,5.2-7.7,7.4
		c-2.4,1.6-1.6,3.4-1.3,4.2c1,2.2,3-0.9,3.9,0c0.9,0.8,1.3,0.9,1.9-0.8c0.3-0.8,0.4-2.7,0.9-3.2c1.9-1.9,4.1-1,7.4-1.3
		s4-2.3,5.7-1.8c1.2,0.3,3.5,0.5,5.5,0.7c0.7,2.1,2.1,3.3,2.9,4.5c0.7,1,1.6,3.4,1.8,5.6c0.2,2.2-5.1,7.3-5.1,9S26.3,59,26.8,62.2
		c0.2,1.2,0.7,3.7,1.3,6.4c-0.7,0.9-1.3,2.1-1.7,3.4c-1.1,3.5,0.4,4.6,1.3,6.4c1,1.8-0.2,3.7,2.7,7.8c1.5,2.2,4.3-0.1,4-4.2
		c-0.1-1.3-0.1-2.6-0.2-3.8c2.6-1.1,4.9-6.8,5.1-11.5c0.2-5.5,1.4-9.8,1.4-9.8l1.1,0.2c0,0,0.3,6.8,0.9,12.1
		c0.5,5.3,0.1,15.8-1.1,20.4c-1.2,4.6,1,15.5-1.2,18.4c-2.2,2.8-0.7,6.5,0,8.4c1,2.7,4,1.2,5.5-1.1c1.1-1.6-0.8-5.7-0.5-8.4
		c0.3-2.7,1.7-7.1,3.2-10.8c2.9-6.9,0.6-13.2,1-15c1-4,5.2-11,5.1-15.4c-0.1-8.6-3.8-17.2-4.1-19.3c-0.1-1.1-0.2-5.2,0.8-8.5
		c0.9-3.2,2.5-5.8,3.5-7.9c1.7,2,4.6,4.5,7.7,7.2c1.3,1.1-1,8.7-2.4,10c-1.5,1.2-3.5,5.3-2.9,6.6c0.6,1.4,2.8,3.4,2.8,3.4
		s4.1,0.8,6.2-2.4C67.3,53.5,65.2,53,66.1,49.5z"/>
	<path class="st0" d="M33.6,13c0,0,1.7,3.7,3.1,5.7c1.4,2,3.1,2.7,2.6,0c-0.5-2.5-0.9-7-0.9-7S35.5,9.5,33.6,13z"/>
	<path class="st0" d="M47.7,12c0,0,1.1,3.8-0.9,6.5c-1.2,1.6-1.3,3.3,0.5,2.7c1.8-0.7,5.4-7.5,5.4-7.5S50.7,10.3,47.7,12z"/>
	<path class="st2" d="M33.6,40.3c0,0,4,4,8.3,5.2c4.1,1.1,8.7,1,8.7,1l0.6,2.3c0,0-2.1,1.3-8.8,0c-6.7-1.3-10.6-5.9-10.6-5.9
		l1.3-1.7L33.6,40.3z"/>
	<path class="st1" d="M50.5,8.9c-0.3-0.4-0.6-0.4-0.8-0.3c0-0.5,0-1.5,0-2.9c0-2.2,0.2-3.3,0.4-4.2c-0.4,0.2-0.8,0.6-0.8,0.6
		S49,1.3,48.4,0.9c-0.6-0.4-5-1.8-7.7-0.1c-2.7,1.7-4.8,2.1-4.8,2.1s0.9,0.5,1.3,0.6c-0.4,0.1-1.3,0.1-1.3,0.1s0.4,0.7,1.5,0.8
		c-0.3,0.8,0,2.8,0.2,4.1c-0.2,0-0.4,0.1-0.7,0.4c-0.6,0.8,0.4,2.2,0.7,2.8c0.2,0.4,0.6,0.4,0.9,0.3c0.3,1,0.8,1.8,1.3,2.7
		c0.4,0.8,2.2,2.6,3.9,2.6c1.7,0,3.5-1.8,3.9-2.6c0.5-0.9,1-1.8,1.3-2.7c0.3,0.1,0.7,0.1,0.9-0.3C50.1,11.1,51.1,9.7,50.5,8.9z"/>
</g>
</svg>
